<?xml version="1.0" encoding="UTF-8"?>
<svg width="156px" height="60px" viewBox="0 0 156 60" version="1.1" xmlns="http://www.w3.org/2000/svg" xmlns:xlink="http://www.w3.org/1999/xlink">
    <title>Tif_Portfolio_SinglePage_App_View</title>
    <defs>
        <linearGradient x1="1.06341024e-07%" y1="3.63511668%" x2="74.5209927%" y2="63.0845163%" id="linearGradient-1">
            <stop stop-color="#5A9FD4" offset="0%"></stop>
            <stop stop-color="#306998" offset="100%"></stop>
        </linearGradient>
        <linearGradient x1="49.9999998%" y1="79.9290985%" x2="23.4426562%" y2="45.2841637%" id="linearGradient-2">
            <stop stop-color="#FFD43B" offset="0%"></stop>
            <stop stop-color="#FFE873" offset="100%"></stop>
        </linearGradient>
        <radialGradient cx="49.9999909%" cy="50.0000434%" fx="49.9999909%" fy="50.0000434%" r="50.0000504%" gradientTransform="translate(0.500000,0.500000),scale(0.173913,1.000000),rotate(-89.999995),translate(-0.500000,-0.500000)" id="radialGradient-3">
            <stop stop-color="#B8B8B8" stop-opacity="0.49803922" offset="0%"></stop>
            <stop stop-color="#7F7F7F" stop-opacity="0" offset="100%"></stop>
        </radialGradient>
    </defs>
    <g id="Tif_Portfolio_SinglePage_App_View" stroke="none" stroke-width="1" fill="none" fill-rule="evenodd">
        <g id="Single-Page-App-View" transform="translate(-737.000000, -1290.000000)">
            <g id="What-I-Do" transform="translate(0.000000, 1030.000000)">
                <g transform="translate(329.000000, 0.000000)">
                    <g id="Dev-Icons" transform="translate(408.000000, 128.000000)" fill-rule="nonzero">
                        <g id="Python_logo_and_wordmark" transform="translate(0.000000, 132.000000)">
                            <path d="M58.4642562,18.9363499 C58.4642562,14.3578497 57.0311192,12.0073067 54.1648453,11.8785932 C53.0243889,11.8295608 51.9108504,11.9950479 50.8275848,12.3781231 C49.9629934,12.6600649 49.380994,12.9389443 49.0748527,13.2208861 L49.0748527,24.1492214 C50.9083248,25.1973136 52.5365868,25.6845815 53.9562665,25.607969 C56.9604713,25.4271575 58.4642562,23.2053281 58.4642562,18.9363499 Z M62,19.1263547 C62,21.4523799 61.4011782,23.3830741 60.1968041,24.9184342 C58.8544993,26.6560581 56.9941127,27.550919 54.6156443,27.5999545 C52.8225405,27.6520524 50.9756111,27.1402636 49.0748527,26.0676567 L49.0748527,36 L46,35.0009433 L46,12.9542655 C46.5046245,12.390382 47.1539102,11.9061764 47.9411267,11.4955211 C49.7712371,10.5240445 51.9949522,10.0245146 54.6122791,10 L54.6560126,10.039839 C57.0479382,10.0122557 58.8915059,10.9071198 60.186712,12.7213561 C61.3944478,14.3854298 62,16.5183878 62,19.1263547 Z" id="path46" fill="#646464"></path>
                            <path d="M80,25.69098 C80,28.8199561 79.666958,30.9868786 79.0008739,32.1917495 C78.3315203,33.3966204 77.0581219,34.358673 75.1774058,35.0748327 C73.6525911,35.6403828 72.0037014,35.9477481 70.2340026,36 L69.7409684,34.229579 C71.540052,33.9990558 72.8069249,33.7685295 73.5415771,33.5380064 C74.9880288,33.07696 75.9806294,32.3700208 76.5259045,31.4233347 C76.9634317,30.6518495 77.1789309,29.1795732 77.1789309,27.0003546 L77.1789309,26.2688284 C75.138226,27.1417437 72.9995647,27.5751284 70.7629539,27.5751284 C69.2936463,27.5751284 67.9973885,27.1417437 66.8807161,26.2688284 C65.6269042,25.3190677 65,24.1141969 65,22.6542157 L65,10.9620526 L67.9843274,10 L67.9843274,21.7690021 C67.9843274,23.0261248 68.4153257,23.9943266 69.2773191,24.6736041 C70.1393124,25.3528785 71.2559881,25.6786849 72.6240768,25.6540978 C73.9921654,25.626433 75.4582069,25.1285013 77.0156726,24.1541568 L77.0156726,10.4241641 L80,10.4241641 L80,25.69098 Z" id="path48" fill="#646464"></path>
                            <path d="M90,26.9597042 C89.7026508,26.9876006 89.4298523,27 89.1788787,27 C87.7685109,27 86.6691336,26.6187338 85.8834754,25.8531008 C85.1005432,25.0874678 84.707717,24.030459 84.707717,22.6820776 L84.707717,11.5230464 L83,11.5230464 L83,9.7407036 L84.707717,9.7407036 L84.707717,5.0074142 L87.1983633,4 L87.1983633,9.7407036 L90,9.7407036 L90,11.5230464 L87.1983633,11.5230464 L87.1983633,22.6045835 C87.1983633,23.6677904 87.449337,24.421024 87.9512871,24.8611867 C88.3823081,25.2238553 89.0670316,25.4315388 90,25.4842341 L90,26.9597042 Z" id="path50" fill="#646464"></path>
                            <path d="M110,27 L107.128366,27 L107.128366,16.0774003 C107.128366,14.9659436 106.864451,14.0092875 106.33977,13.2105257 C105.733396,12.306501 104.891382,11.854487 103.810594,11.854487 C102.494164,11.854487 100.847843,12.5386986 98.8716371,13.9071216 L98.8716371,27 L96,27 L96,0.891640276 L98.8716371,0 L98.8716371,11.8916403 C100.706466,10.5758518 102.710951,9.91640914 104.888239,9.91640914 C106.408888,9.91640914 107.640486,10.4210513 108.583033,11.4272451 C109.528726,12.4334357 110,13.6873053 110,15.1857568 L110,27 L110,27 Z" id="path52" fill="#646464"></path>
                            <path d="M124.808922,17.7063333 C124.808922,15.9035064 124.461447,14.4147611 123.769672,13.2369557 C122.9472,11.8016041 121.668859,11.0446676 119.941023,10.9661464 C116.746763,11.1483164 115.152822,13.4034202 115.152822,17.7251773 C115.152822,19.7070325 115.484359,21.3622391 116.153812,22.6908034 C117.008169,24.3837012 118.289699,25.2191589 119.998406,25.1908928 C123.205418,25.1657652 124.808922,22.6719593 124.808922,17.7063333 Z M128,17.7251773 C128,20.2912242 127.333732,22.4269768 126.004383,24.1324385 C124.541145,26.0420527 122.520024,27 119.941023,27 C117.384341,27 115.391912,26.0420527 113.954175,24.1324385 C112.65033,22.4269768 112,20.2912242 112,17.7251773 C112,15.3130344 112.704524,13.2840691 114.113568,11.6320011 C115.602314,9.87942604 117.559674,9 119.979276,9 C122.398884,9 124.368993,9.87942604 125.886432,11.6320011 C127.295473,13.2840691 128,15.3130344 128,17.7251773 Z" id="path54" fill="#646464"></path>
                            <path d="M145,27 L142.104322,27 L142.104322,15.0555359 C142.104322,13.7451051 141.714641,12.7230337 140.935281,11.9861136 C140.155917,11.2524017 139.116769,10.8967581 137.821,10.925596 C136.446031,10.951229 135.137586,11.4061929 133.895678,12.2872895 L133.895678,27 L131,27 L131,11.9252393 C132.666441,10.698114 134.199819,9.89711473 135.600132,9.52224806 C136.92125,9.17301437 138.087125,9 139.091426,9 C139.778913,9 140.425211,9.0672841 141.033493,9.20184901 C142.170856,9.46778045 143.095949,9.96119388 143.808782,10.6852975 C144.603981,11.4862935 145,12.4474907 145,13.5720874 L145,27 Z" id="path56" fill="#646464"></path>
                            <path d="M18.0184591,1.00028764 C16.5145955,1.00695179 15.0784394,1.12926896 13.8147699,1.34251777 C10.0921579,1.96971924 9.41627584,3.28250569 9.41627551,5.70350754 L9.41627551,8.90091481 L18.2132642,8.90091481 L18.2132642,9.96671723 L9.41627551,9.96671723 L6.11484152,9.96671723 C3.55819169,9.96671723 1.31951589,11.4322341 0.61928675,14.2201489 C-0.188418713,17.4157464 -0.224244841,19.4098512 0.61928675,22.7465683 C1.24460814,25.2302914 2.7379603,27 5.29460948,27 L8.31921515,27 L8.31921515,23.1670225 C8.31921515,20.3979224 10.8314691,17.955347 13.8147699,17.9553464 L22.6015057,17.9553464 C25.0474215,17.9553464 27,16.0347387 27,13.6921367 L27,5.70350754 C27,3.42989823 24.9887976,1.72197397 22.6015057,1.34251777 C21.0903144,1.1026124 19.5223227,0.993623482 18.0184591,1.00028764 Z M13.2611132,3.57190269 C14.1697817,3.57190269 14.9118302,4.29114012 14.9118302,5.17549533 C14.9118302,6.05671595 14.1697817,6.76930996 13.2611132,6.76930996 C12.3491871,6.76930996 11.6103962,6.05671563 11.6103962,5.17549533 C11.6103962,4.29114043 12.3491871,3.57190269 13.2611132,3.57190269 Z" id="path1948" fill="url(#linearGradient-1)"></path>
                            <path d="M28.642832,11 L28.642832,14.6970708 C28.642832,17.5633599 26.0804286,19.9758277 23.1584424,19.975828 L14.3895581,19.975828 C11.9876139,19.975828 10,21.925392 10,24.2065967 L10,32.1344352 C10,34.3907438 12.0688716,35.7178792 14.3895581,36.3652039 C17.1685331,37.1401286 19.8334246,37.2801771 23.1584424,36.3652039 C25.3686203,35.7583362 27.5480015,34.5370119 27.5480005,32.1344352 L27.5480005,28.9613597 L18.7791163,28.9613597 L18.7791163,27.9036675 L27.5480005,27.9036675 L31.93756,27.9036675 C34.4890159,27.9036675 35.439793,26.2158911 36.3271149,23.6826024 C37.243689,21.0746212 37.2046892,18.5666247 36.3271149,15.2210651 C35.6965639,12.8122623 34.4922607,11 31.93756,11 L28.642832,11 Z M23.7109742,31.076744 C24.6210482,31.076744 25.3583375,31.7839164 25.3583375,32.6584295 C25.3583375,33.536054 24.6210472,34.2498196 23.7109742,34.2498196 C22.8041508,34.2498196 22.0636109,33.536054 22.0636109,32.6584295 C22.0636109,31.7839164 22.8041498,31.076744 23.7109742,31.076744 Z" id="path1950" fill="url(#linearGradient-2)"></path>
                            <path d="M150.261142,8 L150.793512,8 L150.793512,4.4260017 L152.054654,4.4260017 L152.054654,4 L149,4 L149,4.4260017 L150.261142,4.4260017 L150.261142,8 M152.526693,8 L152.98153,8 L152.98153,4.73582211 L153.968734,7.99958993 L154.475112,7.99958993 L155.503813,4.74688751 L155.503813,8 L156,8 L156,4 L155.343585,4 L154.219399,7.4268306 L153.260634,4 L152.526693,4 L152.526693,8" id="text3004" fill="#646464"></path>
                            <path d="M30,42 C30,42.7145312 27.8081125,43.3747852 24.25,43.7320508 C20.6918876,44.0893164 16.3081124,44.0893164 12.75,43.7320508 C9.19188754,43.3747852 7,42.7145312 7,42 C7,41.2854688 9.19188751,40.6252148 12.7499999,40.2679492 C16.3081123,39.9106836 20.6918877,39.9106836 24.2500001,40.2679492 C27.8081125,40.6252148 30,41.2854688 30,42 Z" id="path1894" fill="url(#radialGradient-3)" opacity="0.44382019"></path>
                        </g>
                        <g id="django-logo-negative" transform="translate(91.000000, 169.000000)">
                            <path d="M54,20.0184357 C54,21.6651111 52.6570969,23 51.0005356,23 L2.99946438,23 C1.34290305,23 0,21.6651111 0,20.0184357 L0,2.9815643 C0,1.33488893 1.34290305,0 2.99946438,0 L51.0005356,0 C52.6570969,0 54,1.33488893 54,2.9815643 L54,20.0184357 Z" id="Path" fill="#092E20"></path>
                            <g id="Group" transform="translate(4.000000, 3.000000)" fill="#FFFFFF">
                                <path d="M5.58676201,0.101448052 L8.15423112,0.101448052 L8.15423112,12.2990584 C6.83715561,12.5557143 5.87016018,12.6583766 4.81991991,12.6583766 C1.68565446,12.6583766 0.0518398169,11.2041039 0.0518398169,8.41466883 C0.0518398169,5.72822727 1.7857849,3.98285714 4.46983982,3.98285714 C4.88660183,3.98285714 5.20334096,4.01718831 5.58686957,4.11962987 L5.58686957,0.101448052 L5.58676201,0.101448052 Z M5.58676201,6.24131818 C5.28669336,6.13876623 5.03663616,6.10454545 4.71989703,6.10454545 C3.41949199,6.10454545 2.66921281,6.92595455 2.66921281,8.36311688 C2.66921281,9.7665 3.38615103,10.5364675 4.70322654,10.5364675 C4.98651716,10.5364675 5.22001144,10.5193571 5.58676201,10.4682468 L5.58676201,6.24131818 Z" id="Shape"></path>
                                <path d="M12.2386064,4.17085065 L12.2386064,10.2799221 C12.2386064,12.3845 12.0885721,13.394013 11.6384691,14.2668636 C11.2215995,15.1053831 10.6713661,15.6355844 9.53777346,16.2174481 L7.15367963,15.0538312 C8.28737986,14.5062987 8.83750572,14.027539 9.18758581,13.2913506 C9.55444394,12.5386039 9.67124485,11.6656429 9.67124485,9.37274026 L9.67124485,4.17085065 L12.2386064,4.17085065 Z M9.67124485,0.115467532 L12.2386064,0.115467532 L12.2386064,2.81924026 L9.67124485,2.81924026 L9.67124485,0.115467532 L9.67124485,0.115467532 Z" id="Shape"></path>
                                <path d="M13.7893913,4.76982468 C14.9231991,4.22218182 16.0067803,3.98274675 17.190492,3.98274675 C18.5075675,3.98274675 19.3744325,4.34206494 19.7579611,5.0437013 C19.9745698,5.43712987 20.0412517,5.95044156 20.0412517,7.04583766 L20.0412517,12.4016104 C18.8907735,12.5729351 17.4404416,12.6925974 16.3735309,12.6925974 C14.2229314,12.6925974 13.2558284,11.9224091 13.2558284,10.2114805 C13.2558284,8.36311688 14.5395629,7.50770779 17.6906064,7.23372078 L17.6906064,6.65185714 C17.6906064,6.17287662 17.4572197,6.00188312 16.8069634,6.00188312 C15.856746,6.00188312 14.7897277,6.27553896 13.7892838,6.80607143 L13.7892838,4.76982468 L13.7893913,4.76982468 Z M17.8072998,8.9622013 C16.1066957,9.13352597 15.5565698,9.40718182 15.5565698,10.0915974 C15.5565698,10.6049091 15.8734165,10.8445649 16.5735767,10.8445649 C16.9571053,10.8445649 17.3070778,10.8102338 17.8072998,10.7249026 L17.8072998,8.9622013 Z" id="Shape"></path>
                                <path d="M21.2917529,4.58172078 C22.8087666,4.17085065 24.0591602,3.98274675 25.3262243,3.98274675 C26.6432998,3.98274675 27.5936247,4.29051299 28.1606362,4.88970779 C28.6940915,5.45412987 28.8606888,6.0701039 28.8606888,7.38804545 L28.8606888,12.5557143 L26.2933272,12.5557143 L26.2933272,7.4905974 C26.2933272,6.48108442 25.9599176,6.10443506 25.0430412,6.10443506 C24.6929611,6.10443506 24.376222,6.13876623 23.859222,6.29275974 L23.859222,12.5556039 L21.2918604,12.5556039 L21.2918604,4.58172078 L21.2917529,4.58172078 Z" id="Path"></path>
                                <path d="M29.8587666,13.9930974 C30.7591876,14.4720779 31.6593936,14.694513 32.609611,14.694513 C34.2933295,14.694513 35.0102677,13.9930974 35.0102677,12.3160584 C35.0102677,12.2990584 35.0102677,12.2818377 35.0102677,12.2645065 C34.5101533,12.5212727 34.0099314,12.6240455 33.3432197,12.6240455 C31.0924897,12.6240455 29.6585057,11.101 29.6585057,8.68843506 C29.6585057,5.69378571 31.7759794,3.99985714 35.5269451,3.99985714 C36.6274119,3.99985714 37.6444188,4.11951948 38.8781419,4.37595455 L37.999016,6.27708442 C37.3154188,6.14009091 37.9442723,6.25864935 37.4277025,6.20731818 L37.4277025,6.48108442 L37.4609359,7.59314935 L37.4774989,9.03064286 C37.4941693,9.38974026 37.4941693,9.74927922 37.5109474,10.108487 C37.5109474,10.4335844 37.5109474,10.5877987 37.5109474,10.8273442 C37.5109474,13.0861364 37.3275721,14.1470909 36.7774462,15.0196104 C35.9771556,16.3031104 34.5933982,16.9361948 32.6261739,16.9361948 C31.6258375,16.9361948 30.7590801,16.7820909 29.858659,16.4227727 L29.858659,13.9930974 L29.8587666,13.9930974 Z M34.9603638,6.12165584 C34.9270229,6.12165584 34.8937895,6.12165584 34.877119,6.12165584 L34.6936362,6.12165584 C34.1936293,6.10454545 33.6101625,6.24131818 33.2098558,6.49797403 C32.5931556,6.85751299 32.2762014,7.5075974 32.2762014,8.43177922 C32.2762014,9.7495 32.9098947,10.5022468 34.0434874,10.5022468 C34.3935675,10.5022468 34.6770732,10.4338052 35.0103753,10.3311429 L35.0103753,10.1429286 L35.0103753,9.42429221 C35.0103753,9.11630519 34.9938124,8.77387662 34.9938124,8.41466883 L34.9772494,7.19972078 L34.9604714,6.32709091 L34.9604714,6.12165584 L34.9603638,6.12165584 Z" id="Shape"></path>
                                <path d="M42.8638924,3.94863636 C45.431254,3.94863636 46.9984943,5.60856494 46.9984943,8.29478571 C46.9984943,11.0497792 45.3647872,12.778039 42.7638696,12.778039 C40.1962929,12.778039 38.6124897,11.1182208 38.6124897,8.449 C38.6125973,5.67667532 40.2465195,3.94863636 42.8638924,3.94863636 Z M42.8136659,10.6562403 C43.7974394,10.6562403 44.3810137,9.81772078 44.3810137,8.36311688 C44.3810137,6.92595455 43.8141098,6.07021429 42.830659,6.07021429 C41.8135446,6.07021429 41.2298627,6.90895455 41.2298627,8.36311688 C41.2299703,9.81783117 41.8135446,10.6562403 42.8136659,10.6562403 Z" id="Shape"></path>
                            </g>
                        </g>
                    </g>
                </g>
            </g>
        </g>
    </g>
</svg>